<svg width="105" height="40" viewBox="0 0 105 40" fill="none" xmlns="http://www.w3.org/2000/svg">
<path fill-rule="evenodd" clip-rule="evenodd" d="M83.475 9.94914L74.4659 18.851L55.65 0L73.6677 1.57111e-06L83.475 9.94914Z" fill="#DE6B00"/>
<path fill-rule="evenodd" clip-rule="evenodd" d="M54.6841 1.04715L36.7498 18.8493H54.6841L63.6991 9.94124L54.6841 1.04715Z" fill="#E9E9E9"/>
<path d="M95.3655 19.7905C94.9541 20.8937 94.3546 22.5575 93.5673 24.7818C92.5477 24.7818 91.0177 24.7818 88.9782 24.7818C88.9782 27.3678 88.9782 31.256 88.9782 36.4462C88.9782 37.3685 88.6564 38.1552 88.0123 38.8061C87.3682 39.4573 86.59 39.7828 85.6773 39.7828C85.23 39.7828 84.5414 39.7828 83.6109 39.7828C83.6109 36.4552 83.6109 31.4549 83.6109 24.7818C82.5914 24.7818 81.0614 24.7818 79.0218 24.7818C78.6282 23.6786 78.0291 22.0149 77.2241 19.7905C80.2473 19.7905 83.2709 19.7905 86.2946 19.7905C89.3182 19.7905 92.3418 19.7905 95.3655 19.7905Z" fill="#DE6B00"/>
<path d="M97.1636 19.7905C98.8986 19.7905 101.511 19.7905 105 19.7905C105 24.2212 105 30.8853 105 39.7828C103.801 39.7828 102.012 39.7828 99.6323 39.7828C99.6323 36.5456 99.6323 31.681 99.6323 25.1886C99.6323 23.8865 99.4177 22.7744 98.9882 21.8521C98.5591 20.9299 97.9509 20.2425 97.1636 19.7905Z" fill="#DE6B00"/>
<path d="M38.9597 24.7372C40.7001 24.7372 42.0838 25.265 43.1107 26.3206C44.155 27.3761 44.6771 28.9683 44.6771 31.0969V39.2775H39.7167V31.915C39.7167 30.9123 39.5254 30.1733 39.1424 29.6983C38.7769 29.2235 38.2548 28.9859 37.576 28.9859C36.8276 28.9859 36.2272 29.2497 35.7747 29.7775C35.3221 30.3054 35.0958 31.1057 35.0958 32.1788V39.2775H30.1356V31.915C30.1356 29.9623 29.422 28.9859 27.9947 28.9859C27.229 28.9859 26.62 29.2497 26.1673 29.7775C25.7149 30.3054 25.4886 31.1057 25.4886 32.1788V35.7589C25.4886 35.7589 25.4273 39.2775 20.5282 39.2775V24.9748H25.2536V26.4789C25.7757 25.8984 26.3936 25.4675 27.1071 25.186C27.8381 24.887 28.6301 24.7372 29.483 24.7372C30.475 24.7372 31.3626 24.922 32.1458 25.2915C32.929 25.661 33.5644 26.2239 34.0515 26.9804C34.6086 26.2591 35.3135 25.7049 36.1663 25.3179C37.019 24.9308 37.9502 24.7372 38.9597 24.7372Z" fill="#E9E9E9"/>
<path d="M52.7945 24.7372C55.1441 24.7372 56.9364 25.2827 58.1723 26.3734C59.4082 27.4465 60.0259 29.1002 60.0259 31.3345V39.2775H55.405V37.4303C54.6914 38.8201 53.2991 39.5149 51.2282 39.5149C50.1314 39.5149 49.1827 39.3214 48.3823 38.9344C47.5818 38.5473 46.9727 38.0285 46.555 37.3775C46.1545 36.7089 45.9545 35.9525 45.9545 35.1081C45.9545 33.7534 46.4677 32.7067 47.4945 31.9678C48.5214 31.2114 50.1055 30.833 52.2459 30.833H55.0659C54.9786 29.3201 53.9777 28.5637 52.0632 28.5637C51.3845 28.5637 50.6973 28.678 50.0009 28.9068C49.3045 29.1178 48.7132 29.4168 48.2259 29.804L46.555 26.3998C47.3382 25.872 48.2868 25.4675 49.4005 25.186C50.5318 24.887 51.6632 24.7372 52.7945 24.7372ZM52.6118 36.3484C53.1859 36.3484 53.6909 36.2075 54.1259 35.926C54.5609 35.6446 54.8741 35.2312 55.0659 34.6858V33.4455H52.925C51.4805 33.4455 50.7582 33.9293 50.7582 34.897C50.7582 35.3367 50.9232 35.6886 51.2541 35.9525C51.585 36.2163 52.0373 36.3484 52.6118 36.3484Z" fill="#E9E9E9"/>
<path d="M71.3286 24.7372C73.0864 24.7372 74.4964 25.265 75.5577 26.3205C76.6368 27.376 77.1764 28.9682 77.1764 31.0969V39.2775H72.2164V31.915C72.2164 29.9623 71.4418 28.9859 69.8927 28.9859C69.04 28.9859 68.3523 29.2673 67.8305 29.8304C67.3255 30.3933 67.0732 31.2378 67.0732 32.3635V39.2775H62.1127V19.7905H67.0732V26.2941C67.6127 25.7841 68.2482 25.397 68.9791 25.1331C69.71 24.8693 70.4932 24.7372 71.3286 24.7372Z" fill="#E9E9E9"/>
<path d="M9.40391 18.8512C12.3478 18.8512 14.6556 19.6197 16.3274 21.157C17.9992 22.676 18.8351 24.7738 18.8351 27.4504C18.8351 28.264 18.8351 29.4848 18.8351 31.1124C18.8351 33.7708 17.9992 35.8686 16.3274 37.4058C14.6375 38.9249 12.3296 39.6844 9.40391 39.6844C6.47827 39.6844 4.17954 38.9249 2.50771 37.4058C0.835909 35.8686 0 33.7708 0 31.1124C0 30.2985 0 29.078 0 27.4504C0 24.7738 0.835909 22.676 2.50771 21.157C4.17954 19.6197 6.47827 18.8512 9.40391 18.8512ZM13.1655 31.248C13.1655 30.3799 13.1655 29.0688 13.1655 27.3146C13.1655 26.2476 12.8384 25.4067 12.1842 24.792C11.5119 24.177 10.5851 23.8695 9.40391 23.8695C8.24096 23.8695 7.32327 24.177 6.65091 24.792C5.97855 25.4067 5.64236 26.2476 5.64236 27.3146C5.64236 28.1827 5.64236 29.4938 5.64236 31.248C5.64236 32.315 5.97855 33.1558 6.65091 33.7708C7.32327 34.3855 8.24096 34.693 9.40391 34.693C10.5851 34.693 11.5119 34.3855 12.1842 33.7708C12.8384 33.1558 13.1655 32.315 13.1655 31.248Z" fill="#E9E9E9"/>
</svg>
