<svg width="99" height="79" viewBox="0 0 99 79" fill="none" xmlns="http://www.w3.org/2000/svg">
<path d="M8.32003 11.2353C15.1975 3.7794 25.6042 0 39.2466 0H44.1485V13.8186L40.2073 14.6079C33.4915 15.951 28.82 18.5931 26.32 22.4706C25.0155 24.5596 24.2758 26.9511 24.173 29.4118H39.2466C40.5466 29.4118 41.7934 29.9283 42.7127 30.8476C43.632 31.7669 44.1485 33.0137 44.1485 34.3137V68.6276C44.1485 74.0344 39.7513 78.4313 34.3445 78.4313H4.93278C3.63271 78.4313 2.38587 77.9149 1.46657 76.9956C0.547277 76.0763 0.030823 74.8295 0.030823 73.5294V49.0196L0.0455289 34.7109C0.00141121 34.1666 -0.929963 21.2745 8.32003 11.2353ZM88.2661 78.4313H58.8544C57.5544 78.4313 56.3075 77.9149 55.3882 76.9956C54.4689 76.0763 53.9525 74.8295 53.9525 73.5294V49.0196L53.9671 34.7109C53.9231 34.1666 52.9915 21.2745 62.2417 11.2353C69.1191 3.7794 79.5259 0 93.168 0H98.0701V13.8186L94.129 14.6079C87.4132 15.951 82.7417 18.5931 80.2417 22.4706C78.9372 24.5596 78.1974 26.9511 78.0946 29.4118H93.168C94.4683 29.4118 95.7151 29.9283 96.6344 30.8476C97.5537 31.7669 98.0701 33.0137 98.0701 34.3137V68.6276C98.0701 74.0344 93.673 78.4313 88.2661 78.4313Z" fill="#DE6B00"/>
</svg>
